<svg width="144" height="144" viewBox="0 0 144 144" fill="none" xmlns="http://www.w3.org/2000/svg">
<rect width="144" height="144" rx="24" fill="#39A1FF"/>
<path fill-rule="evenodd" clip-rule="evenodd" d="M51.247 34.9596L70.6946 26.1715C71.118 25.9809 71.5914 25.9492 72.031 26.0762L72.29 26.1715L91.5864 34.8919C92.3504 35.1553 92.9004 35.8824 92.9004 36.7402C92.9004 37.7295 92.1696 38.5466 91.2195 38.6759L90.9553 38.6938H52.0448C51.1277 38.6938 50.3355 38.0508 50.1433 37.1509C49.9696 36.3409 50.3247 35.5206 51.0076 35.0886L51.247 34.9596ZM86.0338 35.6835L71.4923 29.1119L56.9497 35.6835H86.0338ZM52.5301 61.9329C52.5301 60.8537 53.4007 59.9794 54.4752 59.9794V59.9785H54.9615V42.4014H54.4752C53.9389 42.4014 53.5036 41.9642 53.5036 41.4256C53.5036 40.8869 53.938 40.4497 54.4752 40.4497H88.5057C89.042 40.4497 89.4773 40.8869 89.4773 41.4256C89.4773 41.9642 89.0439 42.4014 88.5057 42.4014H88.0203V59.9794H88.5057C89.5802 59.9794 90.4508 60.8537 90.4508 61.9329C90.4508 63.0121 89.5802 63.8874 88.5057 63.8874H54.4752C53.4007 63.8874 52.5301 63.0121 52.5301 61.9329ZM84.1301 59.9785V42.4014H78.2965V59.9785H84.1301ZM74.4063 42.4014V59.9785H68.5728V42.4014H74.4063ZM64.6835 42.4014H58.8499V59.9785H64.6835V42.4014ZM52.0448 65.058H90.9371C92.0098 65.058 92.8804 65.9323 92.8813 67.0125C92.8813 68.0907 92.0107 68.9651 90.9362 68.9651H52.0448C50.9702 68.9651 50.0996 68.0907 50.0996 67.0125C50.0996 65.9323 50.9702 65.058 52.0448 65.058ZM23.1474 81.9945L42.595 73.2064C43.0184 73.0159 43.4918 72.9841 43.9314 73.1112L44.1904 73.2064L63.4868 81.9268C64.2508 82.1902 64.8008 82.9173 64.8008 83.7752C64.8008 84.7644 64.07 85.5816 63.1199 85.7109L62.8557 85.7287H23.9452C23.0281 85.7287 22.2359 85.0858 22.0437 84.1858C21.87 83.3759 22.2251 82.5556 22.908 82.1236L23.1474 81.9945ZM57.9342 82.7185L43.3927 76.1469L28.8501 82.7185H57.9342ZM24.4305 108.968C24.4305 107.889 25.3011 107.014 26.3756 107.014V107.013H26.8619V89.4364H26.3756C25.8393 89.4364 25.404 88.9992 25.404 88.4605C25.404 87.9218 25.8384 87.4847 26.3756 87.4847H60.4061C60.9424 87.4847 61.3777 87.9218 61.3777 88.4605C61.3777 88.9992 60.9443 89.4364 60.4061 89.4364H59.9207V107.014H60.4061C61.4806 107.014 62.3512 107.889 62.3512 108.968C62.3512 110.047 61.4806 110.922 60.4061 110.922H26.3756C25.3011 110.922 24.4305 110.047 24.4305 108.968ZM56.0305 107.013V89.4364H50.1969V107.013H56.0305ZM46.3067 89.4364V107.013H40.4732V89.4364H46.3067ZM36.5839 89.4364H30.7503V107.013H36.5839V89.4364ZM62.8375 112.093H23.9452C22.8706 112.093 22 112.967 22 114.047C22 115.126 22.8706 116 23.9452 116H62.8366C63.9111 116 64.7817 115.126 64.7817 114.047C64.7808 112.967 63.9102 112.093 62.8375 112.093ZM119.037 112.093H80.1444C79.0698 112.093 78.1992 112.967 78.1992 114.047C78.1992 115.126 79.0698 116 80.1444 116H119.036C120.11 116 120.981 115.126 120.981 114.047C120.98 112.967 120.109 112.093 119.037 112.093ZM82.5748 107.014C81.5003 107.014 80.6297 107.889 80.6297 108.968C80.6297 110.047 81.5003 110.922 82.5748 110.922H116.605C117.68 110.922 118.55 110.047 118.55 108.968C118.55 107.889 117.68 107.014 116.605 107.014H116.12V89.4364H116.605C117.143 89.4364 117.577 88.9992 117.577 88.4605C117.577 87.9218 117.142 87.4847 116.605 87.4847H82.5748C82.0376 87.4847 81.6032 87.9218 81.6032 88.4605C81.6032 88.9992 82.0385 89.4364 82.5748 89.4364H83.0611V107.013H82.5748V107.014ZM112.23 89.4364V107.013H106.396V89.4364H112.23ZM102.506 107.013V89.4364H96.6724V107.013H102.506ZM86.9495 89.4364H92.7831V107.013H86.9495V89.4364ZM98.7942 73.2064L79.3466 81.9945L79.1072 82.1236C78.4243 82.5556 78.0692 83.3759 78.2429 84.1858C78.4351 85.0858 79.2273 85.7287 80.1444 85.7287H119.055L119.319 85.7109C120.269 85.5816 121 84.7644 121 83.7752C121 82.9173 120.45 82.1902 119.686 81.9268L100.39 73.2064L100.131 73.1112C99.691 72.9841 99.2176 73.0159 98.7942 73.2064ZM99.5919 76.1469L114.133 82.7185H85.0493L99.5919 76.1469Z" fill="black"/>
</svg>
