<svg width="144" height="144" viewBox="0 0 144 144" fill="none" xmlns="http://www.w3.org/2000/svg">
<rect width="144" height="144" rx="24" fill="#39A1FF"/>
<path fill-rule="evenodd" clip-rule="evenodd" d="M65.3059 109.768C62.0711 109.183 58.9682 108.187 56.0257 106.797C56.0121 106.79 55.999 106.782 55.9859 106.775C55.9657 106.763 55.9454 106.751 55.9232 106.741C55.2298 106.412 54.5376 106.06 53.8667 105.692C53.8644 105.69 53.8603 105.688 53.8568 105.686L53.8567 105.686L53.8564 105.686C52.6254 105.003 51.424 104.248 50.2568 103.42C33.2373 91.3436 29.1451 67.5707 41.1349 50.427C43.742 46.7006 46.8971 43.5917 50.4145 41.1276L50.4441 41.1068C50.4776 41.0834 50.5109 41.06 50.5441 41.0364C62.9388 32.4337 79.769 31.8539 92.9302 40.694L90.1035 44.8081C89.3176 45.9532 89.8011 46.7877 91.1769 46.663L103.456 45.5557C104.833 45.4309 105.657 44.2307 105.286 42.8907L101.989 30.924C101.62 29.5824 100.675 29.4218 99.8882 30.5667L97.0549 34.6906C87.3963 28.1596 75.8118 25.6692 64.3136 27.6777C63.1555 27.8796 62.0137 28.1267 60.8875 28.4143L60.8793 28.4157C60.8763 28.4162 60.8734 28.4167 60.8706 28.4172C60.8687 28.4176 60.8668 28.418 60.8649 28.4184C60.8367 28.4253 60.8084 28.4337 60.7804 28.442C60.765 28.4465 60.7499 28.451 60.7349 28.4552C50.8198 31.02 42.169 36.8452 35.9961 45.1564L35.9633 45.1952C35.9218 45.2442 35.8802 45.2935 35.8413 45.3469C35.636 45.6254 35.4323 45.9103 35.2328 46.1953C34.9067 46.6622 34.5851 47.1408 34.2775 47.6194C34.2512 47.6588 34.2292 47.6987 34.2071 47.7385C34.1969 47.7571 34.1866 47.7756 34.1759 47.794C29.082 55.7453 26.625 64.9377 27.0464 74.2962C27.0469 74.3121 27.0466 74.3281 27.0464 74.3442C27.0462 74.3592 27.046 74.3743 27.0464 74.3896C27.0872 75.3037 27.1591 76.2306 27.2568 77.143C27.2605 77.1838 27.2678 77.2231 27.2753 77.263C27.2786 77.2807 27.2819 77.2984 27.2849 77.3164C27.3859 78.2339 27.5126 79.1536 27.6714 80.073C29.2857 89.4541 33.6789 97.8957 40.262 104.464C40.2737 104.476 40.2857 104.488 40.2976 104.501L40.3086 104.512C40.3114 104.515 40.3144 104.518 40.3173 104.52C40.32 104.522 40.3227 104.524 40.3252 104.527C42.0939 106.284 44.0177 107.91 46.0892 109.379C51.5101 113.227 57.5464 115.77 64.029 116.942C65.996 117.298 67.8749 115.979 68.2278 113.999C68.5805 112.017 67.2723 110.123 65.3059 109.768ZM109.195 62.2258C108.584 61.7918 108.1 61.1637 107.847 60.3943C107.607 59.6628 107.34 58.929 107.056 58.2142C106.314 56.3447 107.217 54.2243 109.072 53.4771C110.928 52.7295 113.033 53.6394 113.775 55.5083C114.113 56.3588 114.43 57.2322 114.716 58.1029C115.344 60.0129 114.316 62.0736 112.419 62.7081C111.287 63.085 110.101 62.8687 109.195 62.2258ZM78.8413 109.735C79.5923 109.596 80.349 109.43 81.0911 109.244C83.031 108.758 84.9933 109.946 85.4758 111.9C85.9595 113.852 84.7784 115.83 82.8397 116.316C81.9551 116.539 81.0538 116.735 80.1594 116.903C79.163 117.089 78.1853 116.843 77.417 116.299C76.6716 115.769 76.1225 114.958 75.9432 113.984C75.5801 112.005 76.878 110.103 78.8413 109.735ZM92.8478 104.041C92.2096 104.465 91.5508 104.876 90.8872 105.261C89.1559 106.267 88.5629 108.496 89.5612 110.239C89.8323 110.713 90.1933 111.101 90.609 111.397C91.7251 112.188 93.2409 112.307 94.5029 111.574C95.2919 111.116 96.0764 110.628 96.8365 110.122C98.503 109.013 98.9617 106.752 97.8601 105.072C96.7587 103.392 94.5149 102.931 92.8478 104.041ZM113.207 67.0746C115.205 66.996 116.887 68.5617 116.966 70.5732C117.002 71.4903 117.009 72.4201 116.989 73.3378C116.945 75.3503 115.29 76.9458 113.293 76.9012C112.547 76.884 111.859 76.6406 111.292 76.2384C110.34 75.5625 109.727 74.4381 109.755 73.1766C109.773 72.4086 109.765 71.6283 109.735 70.8595C109.657 68.8488 111.212 67.1539 113.207 67.0746ZM107.256 94.4531C105.655 93.2429 103.389 93.5715 102.19 95.1816C101.731 95.7982 101.247 96.4072 100.752 96.9936C99.4576 98.5253 99.6404 100.826 101.161 102.131C101.248 102.205 101.335 102.273 101.426 102.337C102.938 103.41 105.039 103.164 106.261 101.719C106.853 101.019 107.429 100.292 107.978 99.5553C109.178 97.9452 108.853 95.6616 107.256 94.4531ZM108.04 83.6662C108.637 81.7457 110.668 80.6765 112.575 81.2787C114.481 81.8809 115.541 83.9256 114.944 85.8465C114.672 86.7188 114.37 87.5959 114.046 88.4544C113.334 90.3355 111.244 91.2789 109.377 90.5614C109.087 90.4511 108.821 90.3059 108.579 90.1346C107.259 89.1974 106.684 87.4486 107.284 85.8592C107.558 85.1371 107.811 84.3999 108.04 83.6662ZM66.8513 45.8334C66.8513 44.2059 68.1618 42.8846 69.7798 42.8846C71.3958 42.8846 72.7048 44.2059 72.705 45.8334V71.6199L96.2124 83.8618C97.649 84.6092 98.2105 86.3871 97.4685 87.8343C96.9483 88.8482 95.9251 89.4293 94.8657 89.4293C94.4133 89.4293 93.9537 89.3239 93.5244 89.1L66.8513 75.2108V45.8334Z" fill="black"/>
</svg>
