<svg width="144" height="144" viewBox="0 0 144 144" fill="none" xmlns="http://www.w3.org/2000/svg">
<rect width="144" height="144" rx="24" fill="#39A1FF"/>
<g clip-path="url(#clip0_9_5232)">
<path d="M52.7412 53.1119C52.7412 51.1958 53.0209 49.3357 53.5384 47.6014H59.3985C59.1188 49.3217 58.937 51.1399 58.937 53.1119C58.937 55.0839 59.1048 56.9161 59.3985 58.6224H53.5384C53.0209 56.8741 52.7412 55.028 52.7412 53.1119ZM64.5034 35.2378C62.909 37.4615 61.3706 40.2587 60.3216 43.6853H55.1888C57.2587 39.9371 60.5454 36.9441 64.5034 35.2378ZM70.2657 43.6713H64.4475C65.986 39.3916 68.3636 36.3566 70.2657 34.4685V43.6713ZM70.2657 58.6364H63.4125C63.0909 56.9441 62.8811 55.1119 62.8811 53.1259C62.8811 51.1399 63.0769 49.2937 63.3846 47.6154H70.2657V58.6364ZM74.1678 47.6014H81.0209C81.3426 49.2937 81.5524 51.1259 81.5524 53.1119C81.5524 55.0979 81.3566 56.9441 81.0349 58.6224H74.1538V47.6014H74.1678ZM74.1678 34.4965C76.0559 36.4126 78.4055 39.4196 79.958 43.6853H74.1678V34.4965ZM89.2447 43.6713H84.1118C83.0489 40.2448 81.5104 37.4336 79.93 35.2238C83.8881 36.9441 87.1608 39.9371 89.2447 43.6713ZM90.8811 47.6014C91.3846 49.3496 91.6783 51.1958 91.6783 53.1119C91.6783 55.028 91.3985 56.8881 90.8811 58.6224H85.0209C85.3006 56.9021 85.4825 55.0839 85.4825 53.1119C85.4825 51.1399 85.3146 49.3077 85.0209 47.6014H90.8811ZM58.4195 75.2797C58.965 73.1538 60.0839 71.2098 61.6923 69.4895C59.0069 67.7413 56.7412 65.3636 55.1888 62.5524H60.3216C61.0069 64.7483 61.8741 66.6783 62.8251 68.3706C63.4965 67.7692 64.2097 67.2098 64.965 66.7343C65.3286 66.4825 65.6923 66.2587 66.0419 66.049C65.4545 64.986 64.923 63.8112 64.4475 62.5385H70.2517V64.6084C70.5874 64.5524 70.937 64.5105 71.2727 64.5105C71.6643 64.4685 72.0699 64.4545 72.4475 64.4545C73.0349 64.4545 73.6083 64.4965 74.1538 64.5664V62.5524H79.972C79.5384 63.7832 79.0069 64.9161 78.4615 65.9371C78.5734 65.993 78.6713 66.049 78.7832 66.1049C80.0279 66.8042 80.965 67.6154 81.6083 68.3287C82.5594 66.6364 83.4265 64.7063 84.0979 62.5245H89.2307C87.7202 65.2517 85.5804 67.5594 82.979 69.2937C83.4965 69.6713 83.986 70.1329 84.4335 70.6923C85.3566 71.8671 85.972 73.3497 86.2797 75.1119C93.5384 70.4685 98.3496 62.3427 98.3496 53.1119C98.3356 38.7343 86.6293 27 72.2097 27C57.8041 27 46.0839 38.7063 46.0839 53.1259C46.0839 62.4545 51.0349 70.6783 58.4195 75.2797Z" fill="black"/>
<path d="M113.762 103.923C109.399 102.259 106.811 100.566 106.811 100.566L103.455 111.182L103.007 112.622L101.511 108.357C104.965 103.545 101.245 103.322 100.601 103.322H100.587H100.573H100.559H100.546C99.9021 103.322 96.1959 103.545 99.6364 108.357L98.1399 112.622L97.6784 111.182L94.3217 100.566C94.3217 100.566 92.8672 101.518 90.2798 102.706C89.6364 102.217 88.8532 101.797 87.9161 101.434C82.7413 99.4616 79.6364 97.4336 79.6364 97.4336L75.6364 110.049L75.091 111.755L73.3147 106.692C77.4266 100.972 73.007 100.692 72.2378 100.692H72.2238H72.2098H72.1539H72.1399C71.3847 100.692 66.9511 100.972 71.063 106.692L69.2868 111.755L68.7413 110.049L64.7413 97.4336C64.7413 97.4336 61.6364 99.4616 56.4616 101.434C55.5105 101.769 54.7413 102.189 54.098 102.706C51.5245 101.531 50.056 100.566 50.056 100.566L46.6994 111.182L46.2378 112.622L44.7413 108.357C48.1959 103.545 44.4756 103.322 43.8322 103.322H43.8182H43.8042H43.7903H43.7763C43.1329 103.322 39.4126 103.545 42.8672 108.357L41.3707 112.622L40.9091 111.182L37.5525 100.566C37.5525 100.566 34.9371 102.273 30.6015 103.923C25.8042 105.671 26.1119 109.601 26.014 117H42.8952H43.8042H50.9651H61.5805H71.077H72.1539H82.6854H93.3008H99.5945H100.504H118.28C118.252 109.615 118.559 105.671 113.762 103.923Z" fill="black"/>
<path d="M98.1958 76.3986C97.4685 76.6504 96.8112 77 96.2098 77.4196C95.4685 77.8951 94.7832 78.4546 94.1678 79.0979C93.2028 80.0909 92.3357 81.3776 91.972 82.9581C91.6503 84.1469 91.7203 85.4056 91.986 86.7343C92.0559 87.1259 92.1538 87.5035 92.3077 87.9091C91.5664 87.8392 90.7133 88.2728 91.5245 91.1259C92.1119 93.2238 92.6573 93.8112 93.0769 93.8392C93.4545 96.3427 95.3846 99.5035 98.5315 100.608C99.8182 101.07 101.245 101.07 102.545 100.608C105.65 99.4895 107.636 96.3287 108.014 93.8392C108.434 93.7972 108.979 93.2098 109.566 91.1259C110.378 88.2588 109.51 87.8252 108.783 87.9091C108.909 87.5035 109.035 87.1119 109.105 86.7343C110.336 79.3077 106.685 79.056 106.685 79.056C106.685 79.056 106.084 77.8951 104.49 77.014C103.427 76.3846 101.93 75.8951 99.958 76.063C99.3706 76.077 98.7552 76.1888 98.1958 76.3986Z" fill="black"/>
<path d="M36.3776 93.8531C36.7552 96.3566 38.6853 99.5174 41.8321 100.622C43.1188 101.084 44.5454 101.084 45.8461 100.622C48.951 99.5035 50.937 96.3426 51.3146 93.8531C51.7342 93.8111 52.2797 93.2237 52.8671 91.1398C53.6783 88.2727 52.8111 87.8391 52.0839 87.923C52.2237 87.5314 52.3356 87.1258 52.4055 86.7482C53.6363 79.3216 49.986 79.0699 49.986 79.0699C49.986 79.0699 49.3846 77.9091 47.7902 77.0279C46.7272 76.3986 45.2307 75.9091 43.2587 76.0769C42.6153 76.1188 42.0279 76.2307 41.4545 76.4126C40.7272 76.6643 40.0699 77.0139 39.4825 77.4335C38.7412 77.9091 38.0559 78.4685 37.4405 79.1258C36.4755 80.1049 35.6083 81.3916 35.2447 82.986C34.923 84.1748 34.993 85.4335 35.2587 86.7622C35.3286 87.1538 35.4265 87.5454 35.5804 87.937C34.8671 87.8671 33.986 88.3007 34.7972 91.1538C35.4125 93.2237 35.972 93.8111 36.3776 93.8531Z" fill="black"/>
<path d="M61.4545 86.1888C62.1538 88.6922 62.8112 89.3776 63.3147 89.4335C63.7762 92.4125 66.0559 96.1748 69.8182 97.4895C71.3566 98.0349 73.0629 98.0349 74.5874 97.4755C78.2797 96.1468 80.6573 92.3706 81.1049 89.4195C81.5944 89.3776 82.2657 88.6783 82.965 86.1748C83.93 82.7622 82.9091 82.2587 82.0419 82.3426C82.2098 81.8671 82.3216 81.3915 82.4195 80.944C83.9021 72.1188 79.5384 71.8111 79.5384 71.8111C79.5384 71.8111 78.8251 70.4265 76.923 69.3636C75.6503 68.6083 73.8741 68.0209 71.5384 68.2307C70.7832 68.2727 70.0559 68.4265 69.3986 68.6503C68.5454 68.93 67.7482 69.3776 67.0489 69.8671C66.1818 70.4125 65.3426 71.0978 64.6293 71.8811C63.4685 73.0559 62.4475 74.5664 62.014 76.4825C61.6363 77.909 61.7342 79.3776 62.0279 80.972C62.1119 81.4475 62.2377 81.895 62.4056 82.3706C61.5105 82.2867 60.4895 82.7762 61.4545 86.1888Z" fill="black"/>
</g>
<defs>
<clipPath id="clip0_9_5232">
<rect width="92.2797" height="90" fill="white" transform="translate(26 27)"/>
</clipPath>
</defs>
</svg>
