<svg width="144" height="144" viewBox="0 0 144 144" fill="none" xmlns="http://www.w3.org/2000/svg">
<rect width="144" height="144" rx="24" fill="#39A1FF"/>
<g clip-path="url(#clip0_9_5242)">
<path d="M48.7365 70.1283V84.287C48.7365 87.4223 51.2743 89.9563 54.4143 89.9563C57.5544 89.9563 60.0779 87.4223 60.0779 84.287V70.1283C60.0779 66.9931 57.54 64.4591 54.4143 64.4591C51.2886 64.4591 48.7365 66.9931 48.7365 70.1283Z" fill="black"/>
<path d="M62.9312 64.4591V84.2871C62.9312 87.4223 65.469 89.9563 68.609 89.9563C71.7491 89.9563 74.2869 87.4223 74.2869 84.2871V64.4591C74.2869 61.3239 71.7491 58.7899 68.609 58.7899C65.469 58.7899 62.9312 61.3239 62.9312 64.4591Z" fill="black"/>
<path d="M77.1116 58.7898V84.287C77.1116 87.4222 79.6494 89.9562 82.7894 89.9562C85.9295 89.9562 88.4673 87.4222 88.4673 84.287V58.7898C88.4673 55.6546 85.9295 53.1206 82.7894 53.1206C79.6494 53.1349 77.1116 55.6689 77.1116 58.7898Z" fill="black"/>
<path d="M116.814 65.0747C116.498 64.4161 115.839 63.9867 115.107 63.9867H109.501C105.931 44.6741 88.9548 30 68.5947 30C45.6682 30 27 48.6397 27 71.5456C27 94.4515 45.6682 113.091 68.5947 113.091C83.3916 113.091 97.2135 105.131 104.626 92.3327C105.673 90.5289 105.056 88.224 103.25 87.1789C101.443 86.1338 99.1204 86.7494 98.0881 88.5533C92.0088 99.0327 80.7104 105.547 68.6091 105.547C49.8405 105.547 34.5705 90.2998 34.5705 71.5599C34.5705 52.82 49.8405 37.5733 68.6091 37.5733C84.7824 37.5733 98.3175 48.8974 101.773 64.001H96.2098C95.4786 64.001 94.8047 64.4305 94.4892 65.089C94.1738 65.7476 94.2885 66.5349 94.7473 67.0933L104.21 78.4174C104.569 78.8469 105.099 79.0903 105.659 79.0903C106.218 79.0903 106.748 78.8469 107.107 78.4174L116.57 67.0933C117.029 66.5206 117.129 65.7332 116.814 65.0747Z" fill="black"/>
</g>
<defs>
<clipPath id="clip0_9_5242">
<rect width="90" height="83.0769" fill="white" transform="translate(27 30)"/>
</clipPath>
</defs>
</svg>
