<svg width="144" height="144" viewBox="0 0 144 144" fill="none" xmlns="http://www.w3.org/2000/svg">
<rect width="144" height="144" rx="24" fill="#39A1FF"/>
<g clip-path="url(#clip0_9_6571)">
<path d="M90.4128 95.1738H50.8704V48.8262H90.4128V95.1738ZM70.5862 107.679C67.9833 107.679 65.8788 105.581 65.8788 102.986C65.8788 100.391 67.9833 98.2931 70.5862 98.2931C73.1891 98.2931 75.2936 100.391 75.2936 102.986C75.2936 105.581 73.1891 107.679 70.5862 107.679ZM98 59.1502V46.5074C98 45.0996 97.3354 43.8574 96.2832 43.0845V41.6214C96.2832 35.2172 91.0496 30 84.6254 30H56.6578C50.2335 30 45 35.2172 45 41.6214V102.406C45 108.81 50.2335 114.028 56.6578 114.028H84.6531C91.0773 114.028 96.3109 108.81 96.3109 102.406V79.1357C97.3631 78.3352 98.0277 77.093 98.0277 75.7128V71.931C98.0277 70.5232 97.3631 69.281 96.3109 68.508V62.5731C97.3354 61.8002 98 60.5304 98 59.1502Z" fill="black"/>
<path d="M63.8573 65.3612H57.6823C55.3839 65.3612 53.501 63.4841 53.501 61.1929V55.0096C53.501 52.7184 55.3839 50.8413 57.6823 50.8413H63.885C66.1833 50.8413 68.0663 52.7184 68.0663 55.0096V61.1653C68.0386 63.4841 66.1556 65.3612 63.8573 65.3612Z" fill="black"/>
<path d="M84.0161 74.1945H56.547C54.8578 74.1945 53.501 72.8419 53.501 71.1581C53.501 69.4742 54.8578 68.1216 56.547 68.1216H84.0438C85.7053 68.1216 87.0898 69.4742 87.0898 71.1581C87.0898 72.8419 85.7053 74.1945 84.0161 74.1945Z" fill="black"/>
<path d="M84.0161 83.0003H56.547C54.8578 83.0003 53.501 81.6477 53.501 79.9638C53.501 78.28 54.8578 76.9274 56.547 76.9274H84.0438C85.7053 76.9274 87.0898 78.28 87.0898 79.9638C87.0621 81.6201 85.7053 83.0003 84.0161 83.0003Z" fill="black"/>
<path d="M84.0161 91.7785H56.547C54.8578 91.7785 53.501 90.4259 53.501 88.742C53.501 87.0582 54.8578 85.7056 56.547 85.7056H84.0438C85.7053 85.7056 87.0898 87.0582 87.0898 88.742C87.0621 90.4259 85.7053 91.7785 84.0161 91.7785Z" fill="black"/>
</g>
<defs>
<clipPath id="clip0_9_6571">
<rect width="53" height="84" fill="white" transform="translate(45 30)"/>
</clipPath>
</defs>
</svg>
