<svg width="144" height="144" viewBox="0 0 144 144" fill="none" xmlns="http://www.w3.org/2000/svg">
<rect width="144" height="144" rx="24" fill="#39A1FF"/>
<path d="M65.4332 42.5227C65.9732 44.1419 67.4847 45.2218 69.2115 45.2218H75.0419C76.7695 45.2218 78.281 44.1419 78.821 42.5227L80.0078 38.7436C81.0878 35.5046 78.7125 32.1579 75.2581 32.1579H74.5019V32.0502C74.7181 31.4018 74.5019 30.6465 74.0704 30.2149L73.4228 29.5665C72.6667 28.8112 71.5867 28.8112 70.8315 29.5665L70.1838 30.2149C69.6438 30.7541 69.5361 31.4018 69.7515 32.0502V32.1579H68.9962C65.541 32.1579 63.1658 35.5046 64.2456 38.7436L65.4332 42.5227Z" fill="black"/>
<path d="M112.289 43.8183C112.181 43.4945 112.073 43.2784 111.858 43.0622C111.641 42.8468 111.318 42.7384 110.994 42.7384C110.67 42.7384 110.346 42.7384 110.13 42.9545C109.914 43.0622 109.698 43.2784 109.482 43.6022C108.511 45.3298 106.675 48.4603 104.948 50.9441C99.8736 58.2852 94.6908 63.4672 87.3497 63.6833C86.4859 63.6833 85.6222 63.4672 84.8668 63.1433C82.4916 62.0642 81.0877 59.4728 81.5201 56.8815C81.5201 55.6939 81.9516 54.6147 82.4916 53.6432C83.1393 52.6709 84.0031 51.9156 85.0823 51.3756C86.5938 50.6202 88.6451 50.5118 90.2651 50.8356C91.1289 50.944 91.992 51.2679 92.7481 51.6994C93.5035 52.1317 93.9357 52.0232 94.0434 51.0517C94.1519 48.7841 93.7196 45.7614 91.6682 44.3582C89.0775 42.523 84.9747 43.8183 82.3834 45.222C79.6844 46.625 77.4175 48.7842 75.4738 51.1594C74.1785 52.7793 72.8831 54.5068 72.0194 56.4498C71.0479 54.6145 69.8603 52.7792 68.5642 51.1594C66.6212 48.7842 64.3536 46.625 61.6545 45.222C59.1716 43.8183 55.0688 42.523 52.3697 44.3582C50.3182 45.7612 49.8868 48.7841 49.9945 51.0517C50.103 51.9155 50.5345 52.1317 51.2906 51.6994C52.046 51.2679 52.9098 50.944 53.7736 50.8356C55.5012 50.5118 57.4441 50.6202 58.9556 51.3756C60.0355 51.9155 60.8993 52.6709 61.5469 53.6432C62.1946 54.6147 62.5184 55.8022 62.5184 56.8815C62.8422 59.4728 61.4392 62.0643 59.1717 63.1433C58.4156 63.4672 57.5526 63.6833 56.6888 63.6833C49.3469 63.4672 44.1649 58.2852 39.0906 50.9441C37.363 48.4603 35.5279 45.3298 34.5562 43.6022C34.4485 43.2784 34.2324 43.0622 33.9085 42.9545C33.6924 42.8468 33.3686 42.7384 33.0447 42.7384C32.7209 42.7384 32.5048 42.8468 32.1809 43.0622C31.9648 43.2784 31.7494 43.4945 31.7494 43.8183C29.8057 51.1594 29.4818 58.8252 30.7772 66.3826C31.7494 72.213 35.2038 81.1733 41.0342 84.1969C46.8638 87.2198 51.7222 84.9522 55.0688 83.2246C57.0125 82.1454 58.3079 81.6055 59.3877 81.8216C60.1431 81.9293 60.4669 82.7931 59.9277 83.4408L55.6088 88.8389C54.4212 90.1342 54.0973 91.8619 54.4212 93.4809L48.483 98.7713L47.1877 97.5837C47.6192 96.7199 47.8353 95.6407 47.8353 94.6685C47.8353 93.4809 46.8638 92.5094 45.6763 92.5094C44.4887 92.5094 43.5172 93.4809 43.5172 94.6685C43.5172 96.0722 42.3296 97.1522 41.0343 97.1522C39.8466 97.1522 38.8744 98.1237 38.8744 99.3113C38.8744 100.499 39.8467 101.47 41.0343 101.47C42.2211 101.47 43.3011 101.147 44.2726 100.715L47.1878 103.306L52.3698 107.949C53.2336 108.704 54.6374 108.704 55.3927 107.732C56.1489 106.869 56.1489 105.465 55.1774 104.709L51.8307 101.686L57.0127 97.0436C57.7681 97.4759 58.7403 97.6921 59.7118 97.4759C62.5186 97.1521 65.3261 95.7483 67.809 94.3446C69.212 98.8791 63.2746 102.55 60.4672 105.141C59.388 106.221 57.5527 107.84 58.848 109.46C59.6034 110.431 61.1149 110.755 62.1947 111.079C62.7346 111.187 63.2746 111.295 63.8138 111.511C66.0814 112.05 68.2405 113.023 70.1842 114.426C70.6157 114.749 70.9396 114.966 71.2634 115.289C71.4795 115.506 71.8034 115.613 72.1272 115.613C72.451 115.613 72.7749 115.506 72.991 115.289C73.3148 115.073 73.6387 114.749 74.0709 114.426C75.9062 113.023 78.0654 111.943 80.4406 111.511C80.9805 111.403 81.5205 111.295 82.0597 111.079C83.2473 110.755 84.651 110.431 85.4063 109.46C86.7024 107.84 84.8671 106.113 83.7872 105.141C81.0881 102.55 75.0424 98.8791 76.4461 94.3446C78.9291 95.7484 81.7359 97.0437 84.5433 97.4759C85.5148 97.5836 86.3786 97.4759 87.1341 97.0436L92.2083 101.578C92.2083 101.794 92.1006 102.118 92.1006 102.334C92.1006 106.113 95.1236 109.136 98.9017 109.136C102.681 109.136 105.704 106.113 105.704 102.334C105.704 98.5553 102.681 95.5323 98.9017 95.5323C96.9588 95.5323 95.2312 96.2885 94.0436 97.5838L89.7254 93.6972C90.0493 92.078 89.7254 90.3505 88.5378 88.9466L84.2197 83.5485C83.7874 83.0092 84.1112 82.037 84.7589 81.9293C85.8388 81.7132 87.1341 82.3608 89.0778 83.3331C92.4245 85.0599 97.2828 87.4351 103.113 84.3046C108.943 81.2816 112.29 72.3207 113.369 66.4903C114.449 58.9331 114.125 51.2681 112.29 43.8181L112.289 43.8183ZM96.5269 101.363C96.8507 100.391 97.8222 99.635 98.9013 99.635C100.305 99.635 101.385 100.823 101.385 102.118C101.385 103.522 100.197 104.602 98.9013 104.602C97.4983 104.602 96.4184 103.414 96.4184 102.118C96.4184 101.903 96.4184 101.578 96.5268 101.363L96.5269 101.363Z" fill="black"/>
</svg>
