<svg width="144" height="144" viewBox="0 0 144 144" fill="none" xmlns="http://www.w3.org/2000/svg">
<rect width="144" height="144" rx="24" fill="#39A1FF"/>
<path d="M34 46.1489L45.2306 66.1888V78.4025L34.0173 98.4077L34 46.1489Z" fill="black"/>
<path d="M77.1124 58.8963L87.632 52.4595L109.163 52.4421L77.1124 72.0478V58.8963Z" fill="black"/>
<path d="M77.0535 46.0341L77.1113 72.557L65.8576 65.6571V26L77.0535 46.0341Z" fill="black"/>
<path d="M77.7979 45.3162L68.5905 28.8404L105.61 51.4448L87.9105 51.4591L77.7979 45.3162Z" stroke="black" stroke-width="2"/>
<path d="M77.1113 98.52V85.6463L65.8576 78.8738L65.8634 118.571L77.1113 98.52Z" fill="black"/>
<path d="M36.7444 49.0005L105.579 91.1194L87.8911 91.1384L45.9754 65.4722L36.7444 49.0005Z" fill="#39A1FF" stroke="black" stroke-width="2"/>
<path d="M65.8659 118.571L77.1138 98.5193L87.6104 92.1403L109.124 92.1172L65.8659 118.571Z" fill="black"/>
<path d="M34.0198 98.4085L65.9487 78.8722L55.2152 72.3022L45.2331 78.4033L34.0198 98.4085Z" fill="black"/>
</svg>
