<svg width="144" height="144" viewBox="0 0 144 144" fill="none" xmlns="http://www.w3.org/2000/svg">
<rect width="144" height="144" rx="24" fill="#39A1FF"/>
<path d="M74.3494 53.2243H69.1154C67.7329 53.2243 66.7451 54.3106 66.7451 55.5941V63.0992H76.6205V55.5941C76.6205 54.3107 75.6327 53.2243 74.3494 53.2243Z" fill="black"/>
<path d="M71.683 69.025C69.6088 69.025 67.9302 70.7037 67.9302 72.7778C67.9302 73.9626 68.5226 75.049 69.4112 75.7406L68.4234 79.592C68.3249 80.0859 68.4234 80.5798 68.7196 80.9745C69.0158 81.3693 69.5097 81.567 69.9044 81.567H73.4596C73.9535 81.567 74.3482 81.3693 74.6444 80.9745C74.9406 80.5798 75.0391 80.0859 74.9406 79.592L73.9528 75.7406C74.8414 75.049 75.4338 73.9634 75.4338 72.7778C75.4359 70.7036 73.7572 69.025 71.6829 69.025H71.683Z" fill="black"/>
<path d="M102.988 40.1887C93.9027 39.4971 85.3111 35.5472 78.8921 29.1284L77.0156 27.2519C74.1521 24.3884 69.1151 24.3884 66.3501 27.2519L64.4736 29.1284C58.055 35.5471 49.4628 39.4978 40.3776 40.1887C36.4278 40.4849 33.3657 43.8424 33.3657 47.6938V58.7541C33.3657 83.2452 46.5986 105.86 67.9297 117.908C69.016 118.5 70.2999 118.896 71.6825 118.896C72.9665 118.896 74.2499 118.6 75.4353 117.908C96.7662 105.86 109.999 83.2452 109.999 58.7541L110 47.7931C110 43.8426 106.939 40.4851 102.988 40.1889L102.988 40.1887ZM88.2736 84.3318C88.2736 86.109 86.7925 87.5907 85.0147 87.5907H58.351C56.5738 87.5907 55.0921 86.1097 55.0921 84.3318L55.0928 66.2598C55.0928 64.4826 56.5739 63.0009 58.3517 63.0009H60.9192V55.4958C60.9192 50.9527 64.5729 47.2992 69.1158 47.2992H74.3497C78.8928 47.2992 82.5463 50.9529 82.5463 55.4958V63.0009H85.1138C86.891 63.0009 88.3726 63.9887 88.3726 65.766V84.3318H88.2736Z" fill="black"/>
</svg>
