<svg width="144" height="144" viewBox="0 0 144 144" fill="none" xmlns="http://www.w3.org/2000/svg">
<rect width="144" height="144" rx="24" fill="#39A1FF"/>
<path d="M79.2819 27C72.2627 27.005 65.8493 30.827 62.4635 36.87C55.8517 37.4595 50.4834 42.5545 49.4735 49.0412C45.3368 50.2181 42.2672 54.0352 42.2672 58.532C42.2672 63.9553 46.7246 68.407 52.1481 68.407H69.2911V77.1785H41.3124V93.6238H29.8107C29.7216 93.6194 29.6312 93.6194 29.5421 93.6238C28.8472 93.6934 28.2038 94.0186 27.7362 94.5358C27.2679 95.0537 27.0093 95.7272 27.0099 96.4246V105.053C26.9967 105.211 26.9967 105.369 27.0099 105.526V114.17C27.0055 114.917 27.2986 115.635 27.824 116.166C28.3494 116.696 29.0644 116.996 29.8107 116.999H58.4548C59.2061 117.004 59.928 116.707 60.4598 116.175C60.9908 115.644 61.2877 114.922 61.2833 114.17V96.4251C61.2802 95.6787 60.9802 94.9638 60.4497 94.4384C59.9193 93.9124 59.2012 93.6199 58.4548 93.6243H46.9368V82.8096H97.0675V93.6243H85.5276C85.4309 93.6193 85.3336 93.6193 85.237 93.6243C84.5465 93.699 83.9081 94.026 83.4449 94.5433C82.981 95.0605 82.7255 95.7309 82.7268 96.4251V105.054C82.7136 105.211 82.7136 105.369 82.7268 105.526V114.171C82.7224 114.918 83.0155 115.636 83.5409 116.166C84.0663 116.697 84.7813 116.997 85.5276 117H114.176C114.927 117.002 115.648 116.706 116.178 116.174C116.708 115.643 117.004 114.922 117 114.171V96.4257C116.997 95.68 116.698 94.9656 116.168 94.4408C115.639 93.9154 114.922 93.6216 114.176 93.6248H102.697V77.1796H74.921V68.408H91.8374C97.2609 68.408 101.713 63.9557 101.713 58.533C101.713 55.4378 100.27 52.6602 98.0223 50.8493C98.387 49.3655 98.5828 47.8459 98.5878 46.313V46.3124V46.3017C98.5866 35.6753 89.9077 27.0026 79.2818 27.001L79.2819 27ZM79.2819 32.6242H79.2876C86.8698 32.6261 92.9536 38.7137 92.958 46.2949C92.9523 47.9332 92.6542 49.5578 92.0735 51.09C91.8199 51.7616 91.8331 52.5048 92.1099 53.1677C92.3868 53.8306 92.9059 54.3623 93.5625 54.6541C95.0527 55.3151 96.0891 56.7626 96.0891 58.5321C96.0891 60.935 94.2411 62.7829 91.8376 62.7829H52.1489C49.746 62.7829 47.8974 60.935 47.8974 58.5321C47.8974 56.1349 49.7359 54.2952 52.132 54.2863C52.8972 54.2838 53.6285 53.9693 54.1571 53.4157C54.6856 52.8627 54.9656 52.1182 54.9336 51.3537C54.9317 51.3148 54.9292 51.2771 54.9279 51.2382C54.9361 46.3528 58.8317 42.4535 63.7161 42.439C63.8184 42.4422 63.922 42.4491 64.0237 42.4553V42.456C64.5999 42.493 65.173 42.3524 65.6665 42.0524C66.1592 41.7529 66.5484 41.3092 66.7813 40.7806C68.9695 35.8199 73.8601 32.6287 79.2823 32.6242L79.2819 32.6242ZM32.6335 99.2472H55.6532V102.488L32.6335 102.487V99.2472ZM88.3275 99.2472H98.9114C99.5404 99.4794 100.232 99.4794 100.861 99.2472H111.374V102.488L88.3272 102.487L88.3275 99.2472ZM32.6335 108.112H55.6532V111.369H32.6335V108.112ZM88.3275 108.112H111.375V111.369H88.3275V108.112Z" fill="black" stroke="black"/>
</svg>
