<svg width="32" height="32" viewBox="0 0 32 32" fill="none" xmlns="http://www.w3.org/2000/svg">
<path d="M15.9998 16.4728C12.389 16.4728 9.45154 13.5351 9.45154 9.92449C9.45154 6.3139 12.3892 3.37622 15.9998 3.37622C19.6104 3.37622 22.5481 6.3139 22.5481 9.92449C22.5481 13.5351 19.6104 16.4728 15.9998 16.4728ZM15.9998 4.32059C12.91 4.32059 10.3965 6.83417 10.3965 9.92394C10.3965 13.0137 12.91 15.5273 15.9998 15.5273C19.0896 15.5273 21.6032 13.0137 21.6032 9.92394C21.6032 6.83417 19.0896 4.32059 15.9998 4.32059Z" fill="white"/>
<path d="M15.9998 12.4218C12.7455 12.4218 9.45154 11.5637 9.45154 9.92392C9.45154 8.28411 12.7458 7.42603 15.9998 7.42603C19.2538 7.42603 22.5481 8.28411 22.5481 9.92392C22.5481 11.5637 19.2538 12.4218 15.9998 12.4218ZM15.9998 8.3712C14.4263 8.3712 12.9536 8.57325 11.853 8.94022C10.8468 9.2756 10.3964 9.67584 10.3964 9.92397C10.3964 10.1721 10.8468 10.5723 11.853 10.9077C12.9536 11.2747 14.4263 11.4767 15.9998 11.4767C17.5733 11.4767 19.046 11.2747 20.1467 10.9077C21.1528 10.5723 21.6032 10.1721 21.6032 9.92397C21.6032 9.67584 21.1528 9.27563 20.1467 8.94022C19.046 8.57325 17.5733 8.3712 15.9998 8.3712Z" fill="white"/>
<path d="M15.9997 16.4728C14.36 16.4728 13.5018 13.1785 13.5018 9.92449C13.5018 6.67048 14.3599 3.37622 15.9997 3.37622C17.6395 3.37622 18.4976 6.67048 18.4976 9.92449C18.4976 13.1785 17.6395 16.4728 15.9997 16.4728ZM15.9997 4.32059C15.7516 4.32059 15.3514 4.77099 15.016 5.77715C14.649 6.87781 14.447 8.35047 14.447 9.924C14.447 11.4975 14.649 12.9702 15.016 14.0708C15.3514 15.077 15.7516 15.5274 15.9997 15.5274C16.2479 15.5274 16.6481 15.077 16.9835 14.0708C17.3504 12.9702 17.5525 11.4975 17.5525 9.924C17.5525 8.35047 17.3505 6.87781 16.9835 5.77715C16.6481 4.77099 16.2479 4.32059 15.9997 4.32059Z" fill="white"/>
<path d="M16.085 32C15.9239 32 15.7737 31.9178 15.6867 31.7818C15.6628 31.7442 13.2585 27.9706 10.8893 23.4337C7.68572 17.2986 6.0664 12.753 6.07609 9.92234C6.08501 7.27038 7.11959 4.77878 8.98914 2.90682C10.8613 1.03245 13.3513 0 16.0003 0C18.6858 0 21.2046 1.05122 23.0924 2.95984C24.9478 4.83568 25.9534 7.31087 25.9245 9.92907C25.8562 16.0848 16.8727 31.1324 16.4906 31.77C16.4065 31.9103 16.2558 31.9971 16.0921 31.9993C16.0897 31.9998 16.0875 31.9998 16.0853 31.9998L16.085 32ZM16.0001 0.945558C11.0658 0.945558 7.03782 4.97427 7.02115 9.92636C7.00186 15.5717 14.2515 27.6676 16.0729 30.6168C17.8361 27.5906 24.9217 15.1118 24.9791 9.91957L25.4516 9.92488L24.9791 9.91957C25.0053 7.55574 24.0966 5.32041 22.4202 3.6256C20.7114 1.89783 18.4313 0.946176 16.0003 0.946176L16.0001 0.945558Z" fill="white"/>
<path d="M31.527 31.9999H0.47257C0.211688 31.9999 0 31.7883 0 31.5274C0 31.2665 0.211694 31.0548 0.47257 31.0548H31.527C31.7879 31.0548 31.9996 31.2665 31.9996 31.5274C31.9996 31.7883 31.7879 31.9999 31.527 31.9999Z" fill="white"/>
</svg>
