<svg width="33" height="29" viewBox="0 0 33 29" fill="none" xmlns="http://www.w3.org/2000/svg">
<path d="M1.61425 15.1832L22.8993 15.1832L17.7952 20.3061C17.6273 20.4314 17.5222 20.6234 17.5073 20.832C17.4924 21.0406 17.5692 21.2455 17.7177 21.3934C17.8662 21.5411 18.0714 21.6176 18.281 21.6028C18.4903 21.5879 18.6827 21.4835 18.8088 21.3162L25.1436 14.9668C25.4196 14.6863 25.4196 14.2373 25.1436 13.9567L18.8088 7.60758C18.6828 7.44023 18.4903 7.33555 18.281 7.32071C18.0714 7.30586 17.8661 7.38236 17.7177 7.53033C17.5692 7.67804 17.4924 7.88288 17.5073 8.09148C17.5222 8.30008 17.6273 8.4921 17.7952 8.61766L22.8993 13.7403L1.61425 13.7403C1.21454 13.7403 0.890336 14.0634 0.890336 14.4618C0.890336 14.8604 1.21455 15.1832 1.61425 15.1832L1.61425 15.1832Z" fill="white"/>
<path d="M28.5465 0.284229L14.284 0.284228C13.1321 0.284228 12.0271 0.740198 11.2125 1.55201C10.3977 2.36402 9.94014 3.46496 9.94014 4.61324L9.94014 8.68979C9.94014 9.08813 10.2644 9.41122 10.6641 9.41122C11.064 9.41122 11.388 9.08812 11.388 8.68979L11.388 4.61324C11.388 3.84774 11.6933 3.11374 12.2361 2.57242C12.7793 2.03115 13.5158 1.72717 14.284 1.72717L28.5464 1.72717C29.3146 1.72717 30.0511 2.03115 30.5943 2.57242C31.1371 3.1137 31.4424 3.84774 31.4424 4.61324L31.4424 24.671C31.4424 25.4365 31.1371 26.1705 30.5943 26.7118C30.0511 27.2531 29.3146 27.5571 28.5464 27.5571L14.284 27.5571C13.5158 27.5571 12.7793 27.2531 12.2361 26.7118C11.6932 26.1705 11.388 25.4365 11.388 24.671L11.388 20.2338C11.388 19.8352 11.064 19.5124 10.6641 19.5124C10.2643 19.5124 9.94014 19.8352 9.94014 20.2338L9.94014 24.671C9.94014 25.8192 10.3977 26.9201 11.2125 27.7322C12.0271 28.544 13.1321 29 14.284 29L28.5465 29C29.6984 29 30.8034 28.544 31.618 27.7322C32.4328 26.9202 32.8904 25.8193 32.8904 24.671L32.8904 4.61324C32.8904 3.46502 32.4328 2.36409 31.618 1.55201C30.8034 0.740192 29.6985 0.284229 28.5465 0.284229Z" fill="white"/>
</svg>
