<svg width="46" height="32" viewBox="0 0 46 32" fill="none" xmlns="http://www.w3.org/2000/svg">
<path d="M4.69689 0.000338817H41.2848C42.5753 0.000338817 43.7489 0.528696 44.6001 1.37915C45.4526 2.22893 45.9816 3.40494 45.9816 4.69723V27.3028C45.9816 28.5933 45.4533 29.7676 44.6028 30.6185C43.7489 31.4717 42.5753 32 41.2848 32H4.69689C3.40637 32 2.23274 31.4716 1.38155 30.6212C0.528313 29.7673 0 28.5929 0 27.3024V4.69688C0 3.40459 0.529046 2.22858 1.37881 1.3788L1.4233 1.33776C2.27067 0.511423 3.42737 0 4.69688 0L4.69689 0.000338817ZM3.38597 4.08989C3.07593 3.82433 3.03971 3.35702 3.30527 3.04702C3.57083 2.73697 4.03814 2.70076 4.34814 2.96632L21.1778 17.4201C21.7365 17.9002 22.3666 18.1406 22.9905 18.1406C23.614 18.1406 24.2441 17.8998 24.8031 17.4201L41.6328 2.96632C41.9428 2.70076 42.4101 2.73697 42.6757 3.04702C42.9412 3.35706 42.905 3.82438 42.595 4.08989L28.7274 16.0001L42.595 27.9103C42.905 28.1758 42.9412 28.6431 42.6757 28.9531C42.4101 29.2632 41.9428 29.2994 41.6328 29.0338L27.5922 16.9753L25.7657 18.5439C24.9273 19.264 23.9619 19.624 22.9907 19.624C22.0196 19.624 21.0542 19.2636 20.2158 18.5439L18.3893 16.9753L4.34867 29.0338C4.03863 29.2994 3.57131 29.2632 3.3058 28.9531C3.04025 28.6431 3.07645 28.1758 3.3865 27.9103L17.2541 16.0001L3.3865 4.08989H3.38597ZM41.2849 1.4836H4.69707C3.83039 1.4836 3.04023 1.83089 2.46053 2.39271L2.42776 2.42789C1.8456 3.01005 1.48351 3.81429 1.48351 4.69718V27.3027C1.48351 28.187 1.84495 28.9916 2.42679 29.5738C3.00895 30.1552 3.8132 30.517 4.69715 30.517H41.285C42.1693 30.517 42.9732 30.1556 43.5554 29.5738C44.1368 28.9916 44.4986 28.187 44.4986 27.3027V4.69718C44.4986 3.81429 44.1365 3.01006 43.5544 2.42789C42.9733 1.84504 42.1693 1.48363 41.2851 1.48363L41.2849 1.4836Z" fill="white"/>
</svg>
