<svg width="32" height="32" viewBox="0 0 32 32" fill="none" xmlns="http://www.w3.org/2000/svg">
<path fill-rule="evenodd" clip-rule="evenodd" d="M23.1429 18.744C23.9862 18.744 24.7818 19.1096 25.4415 19.7934L29.1749 23.5238C29.8618 24.2008 30.2222 25.0064 30.2222 25.8459C30.2222 26.6787 29.8686 27.4911 29.1953 28.1884C28.9029 28.4931 28.6037 28.7842 28.3113 29.0618C28.2795 29.0924 28.2479 29.1228 28.2164 29.1531C27.8227 29.5322 27.4486 29.8923 27.1212 30.2872C27.1178 30.294 27.1127 30.299 27.1076 30.3041C27.1025 30.3092 27.0974 30.3143 27.094 30.321C26.0603 31.4381 24.741 32.0001 23.1701 32.0001C23.0341 32.0001 22.8845 31.9933 22.7417 31.9865C20.4091 31.8376 18.3213 30.9642 16.7572 30.2263C12.6633 28.2561 9.07945 25.46 6.10083 21.9192C3.64585 18.9809 2.00013 16.239 0.898448 13.2804C0.449614 12.0753 -0.135229 10.2338 0.0279831 8.25692C0.136791 7.03152 0.633228 5.97536 1.50369 5.10878L3.81586 2.78659L3.82946 2.77305C4.50952 2.12311 5.31198 1.77783 6.14164 1.77783C6.9713 1.77783 7.76016 2.12311 8.41981 2.77305C8.86184 3.17927 9.29027 3.61256 9.6983 4.03231C9.90231 4.24896 10.1199 4.4656 10.3307 4.67547L10.3307 4.67548L12.1873 6.52375C13.6154 7.94549 13.6154 9.78699 12.1873 11.2087C12.0921 11.3035 11.9969 11.4 11.9017 11.4965C11.8065 11.5929 11.7112 11.6894 11.616 11.7842C11.5675 11.8332 11.5188 11.8824 11.47 11.9317C11.0127 12.3937 10.5422 12.869 10.0383 13.3278C10.4532 14.2418 11.0244 15.1422 11.8745 16.2119C13.629 18.3581 15.4583 20.0168 17.4713 21.2896C17.6685 21.4114 17.8997 21.5265 18.1445 21.6484L18.1445 21.6484C18.2022 21.6782 18.2606 21.7081 18.3195 21.7382C18.4344 21.7969 18.5513 21.8566 18.6682 21.9192L20.8171 19.7866C21.504 19.1028 22.3064 18.744 23.1429 18.744ZM27.2014 27.5981C27.4359 27.3711 27.6583 27.1559 27.876 26.9224C28.5697 26.2048 28.5697 25.4939 27.8692 24.8033L24.1222 21.0729L24.1086 21.0594C23.8978 20.8292 23.5509 20.5652 23.1293 20.5652C22.7009 20.5652 22.3336 20.8427 22.1024 21.0729L19.7766 23.3883C19.661 23.5034 19.3074 23.8555 18.743 23.8555C18.5186 23.8555 18.3009 23.8013 18.0697 23.6862C18.0561 23.6795 18.0425 23.671 18.0289 23.6625C18.0153 23.6541 18.0017 23.6456 17.9881 23.6388C17.7909 23.517 17.5597 23.4019 17.3149 23.28L17.3149 23.28L17.3148 23.28C17.0428 23.1446 16.7572 23.0024 16.4784 22.8264C14.2954 21.4521 12.3165 19.658 10.4396 17.3561L10.4328 17.3493C9.39908 16.0427 8.71903 14.9459 8.23619 13.7814L8.21579 13.7205C8.09338 13.3346 7.98457 12.7659 8.56942 12.1836C8.57381 12.1749 8.58104 12.169 8.58927 12.1622C8.59378 12.1585 8.5986 12.1546 8.60342 12.1498C9.19506 11.6217 9.7391 11.0801 10.3103 10.4979C10.4416 10.3717 10.5698 10.2426 10.699 10.1125C10.764 10.047 10.8292 9.98133 10.8952 9.91563C11.616 9.19798 11.616 8.5345 10.8952 7.81686L9.03865 5.96859C8.93069 5.85775 8.82272 5.74858 8.71559 5.64024C8.60678 5.53021 8.49883 5.42105 8.3926 5.31188C7.97777 4.88536 7.58334 4.48592 7.16851 4.10001L7.14811 4.0797C6.9305 3.86306 6.58367 3.60579 6.15524 3.60579C5.80841 3.60579 5.45479 3.77504 5.12156 4.08647L2.80259 6.39512C2.23815 6.95704 1.93212 7.61375 1.86412 8.40587C1.76211 9.64482 1.99333 10.9582 2.62578 12.644C3.65265 15.4063 5.20317 17.9789 7.52214 20.7615C10.3307 24.0992 13.7106 26.7328 17.5597 28.5879C18.9674 29.2581 20.8443 30.0435 22.8641 30.1721C22.9661 30.1789 23.0748 30.1789 23.1768 30.1789H23.1769C24.2378 30.1789 25.047 29.8336 25.7339 29.1024C26.1555 28.6082 26.6044 28.1681 27.0464 27.7484C27.0987 27.6975 27.1503 27.6475 27.2014 27.5981Z" fill="white"/>
<path d="M16.7609 8.05614C18.555 8.35746 20.1847 9.20662 21.4857 10.5078C22.7867 11.8089 23.629 13.4388 23.9371 15.233C24.0124 15.6849 24.4028 15.9999 24.8478 15.9999C24.9026 15.9999 24.9506 15.9931 25.0053 15.9862C25.5121 15.9041 25.8476 15.4247 25.7654 14.9179C25.3956 12.7471 24.3685 10.768 22.8004 9.19978C21.2323 7.63156 19.2534 6.60434 17.0827 6.23455C16.576 6.15237 16.1036 6.48793 16.0145 6.98784C15.9255 7.48775 16.2542 7.97396 16.7609 8.05614Z" fill="white"/>
<path d="M31.9862 14.0616C31.3876 10.5496 29.7332 7.35392 27.191 4.81079C24.6488 2.26767 21.4542 0.612624 17.9435 0.0138469C17.4525 -0.073615 16.9885 0.262777 16.9011 0.753909C16.8204 1.25177 17.1499 1.71599 17.6476 1.80345C20.7816 2.33495 23.6399 3.8218 25.9131 6.08908C28.1863 8.36309 29.6659 11.2224 30.1972 14.3576C30.2712 14.8016 30.6546 15.1111 31.0917 15.1111C31.1455 15.1111 31.1926 15.1044 31.2464 15.0977C31.7373 15.0236 32.0736 14.5527 31.9862 14.0616Z" fill="white"/>
</svg>
