<svg width="32" height="32" viewBox="0 0 32 32" fill="none" xmlns="http://www.w3.org/2000/svg">
<path fill-rule="evenodd" clip-rule="evenodd" d="M23.1429 18.7439C23.9862 18.7439 24.7818 19.1095 25.4415 19.7933L29.1749 23.5237C29.8618 24.2007 30.2222 25.0064 30.2222 25.8459C30.2222 26.6786 29.8686 27.491 29.1953 28.1884C28.9029 28.493 28.6037 28.7841 28.3113 29.0617C28.2795 29.0923 28.2479 29.1228 28.2164 29.1531C27.8227 29.5321 27.4486 29.8922 27.1212 30.2871C27.1178 30.2939 27.1127 30.299 27.1076 30.3041C27.1025 30.3091 27.0974 30.3142 27.094 30.321C26.0603 31.4381 24.741 32 23.1701 32C23.0341 32 22.8845 31.9932 22.7417 31.9865C20.4091 31.8375 18.3213 30.9642 16.7572 30.2262C12.6633 28.2561 9.07945 25.46 6.10083 21.9191C3.64585 18.9809 2.00013 16.2389 0.898448 13.2804C0.449614 12.0753 -0.135229 10.2338 0.0279831 8.25686C0.136791 7.03146 0.633228 5.9753 1.50369 5.10871L3.81586 2.78653L3.82946 2.77299C4.50952 2.12305 5.31198 1.77777 6.14164 1.77777C6.9713 1.77777 7.76016 2.12305 8.41981 2.77299C8.86184 3.1792 9.29027 3.6125 9.6983 4.03225C9.90231 4.24889 10.1199 4.46554 10.3307 4.67541L10.3307 4.67542L12.1873 6.52369C13.6154 7.94543 13.6154 9.78693 12.1873 11.2087C12.0921 11.3035 11.9969 11.3999 11.9017 11.4964C11.8065 11.5929 11.7112 11.6894 11.616 11.7841C11.5675 11.8331 11.5188 11.8823 11.47 11.9317C11.0127 12.3936 10.5422 12.869 10.0383 13.3278C10.4532 14.2417 11.0244 15.1422 11.8745 16.2119C13.629 18.358 15.4583 20.0167 17.4713 21.2895C17.6685 21.4114 17.8997 21.5265 18.1445 21.6483L18.1445 21.6483C18.2022 21.6782 18.2606 21.708 18.3195 21.7381C18.4344 21.7968 18.5513 21.8565 18.6682 21.9191L20.8171 19.7865C21.504 19.1027 22.3064 18.7439 23.1429 18.7439ZM27.2014 27.598C27.4359 27.3711 27.6583 27.1558 27.876 26.9223C28.5697 26.2047 28.5697 25.4938 27.8692 24.8033L24.1222 21.0729L24.1086 21.0593C23.8978 20.8291 23.5509 20.5651 23.1293 20.5651C22.7009 20.5651 22.3336 20.8427 22.1024 21.0729L19.7766 23.3883C19.661 23.5034 19.3074 23.8554 18.743 23.8554C18.5186 23.8554 18.3009 23.8013 18.0697 23.6862C18.0561 23.6794 18.0425 23.6709 18.0289 23.6625C18.0153 23.654 18.0017 23.6456 17.9881 23.6388C17.7909 23.5169 17.5597 23.4018 17.3149 23.28L17.3149 23.28L17.3148 23.2799C17.0428 23.1445 16.7572 23.0024 16.4784 22.8264C14.2954 21.452 12.3165 19.6579 10.4396 17.356L10.4328 17.3493C9.39908 16.0426 8.71903 14.9458 8.23619 13.7814L8.21579 13.7204C8.09338 13.3345 7.98457 12.7658 8.56942 12.1836C8.57381 12.1748 8.58104 12.1689 8.58927 12.1622C8.59378 12.1585 8.5986 12.1545 8.60342 12.1497C9.19506 11.6217 9.7391 11.08 10.3103 10.4978C10.4416 10.3717 10.5698 10.2425 10.699 10.1124C10.764 10.047 10.8292 9.98126 10.8952 9.91556C11.616 9.19792 11.616 8.53444 10.8952 7.8168L9.03865 5.96853C8.93069 5.85769 8.82272 5.74851 8.71559 5.64018C8.60678 5.53015 8.49883 5.42098 8.3926 5.31182C7.97777 4.8853 7.58334 4.48586 7.16851 4.09995L7.14811 4.07964C6.9305 3.863 6.58367 3.60573 6.15524 3.60573C5.80841 3.60573 5.45479 3.77498 5.12156 4.08641L2.80259 6.39505C2.23815 6.95698 1.93212 7.61369 1.86412 8.40581C1.76211 9.64476 1.99333 10.9582 2.62578 12.644C3.65265 15.4062 5.20317 17.9789 7.52214 20.7614C10.3307 24.0992 13.7106 26.7328 17.5597 28.5878C18.9674 29.2581 20.8443 30.0434 22.8641 30.172C22.9661 30.1788 23.0749 30.1788 23.1769 30.1788C24.2378 30.1788 25.047 29.8335 25.7339 29.1023C26.1555 28.6081 26.6044 28.1681 27.0464 27.7483C27.0987 27.6974 27.1503 27.6475 27.2014 27.598Z" fill="#150035"/>
<path d="M16.7609 8.0562C18.555 8.35752 20.1847 9.20668 21.4857 10.5078C22.7867 11.809 23.629 13.4388 23.9371 15.233C24.0124 15.685 24.4028 16 24.8478 16C24.9026 16 24.9506 15.9932 25.0053 15.9863C25.5121 15.9041 25.8476 15.4248 25.7654 14.918C25.3956 12.7472 24.3685 10.7681 22.8004 9.19984C21.2323 7.63162 19.2534 6.6044 17.0827 6.23461C16.576 6.15243 16.1036 6.48799 16.0145 6.9879C15.9255 7.48781 16.2542 7.97403 16.7609 8.0562Z" fill="#150035"/>
<path d="M31.9862 14.0616C31.3876 10.5496 29.7332 7.35392 27.191 4.81079C24.6488 2.26767 21.4542 0.612624 17.9435 0.0138469C17.4525 -0.073615 16.9885 0.262777 16.9011 0.753909C16.8204 1.25177 17.1499 1.71599 17.6476 1.80345C20.7816 2.33495 23.6399 3.8218 25.9131 6.08908C28.1863 8.36309 29.6659 11.2224 30.1972 14.3576C30.2712 14.8016 30.6546 15.1111 31.0917 15.1111C31.1455 15.1111 31.1926 15.1044 31.2464 15.0977C31.7373 15.0236 32.0736 14.5527 31.9862 14.0616Z" fill="#150035"/>
</svg>
