<svg width="160" height="54" viewBox="0 0 160 54" fill="none" xmlns="http://www.w3.org/2000/svg">
<path d="M80.7775 17.1767C82.717 17.1767 84.1787 17.7352 85.1545 18.8521C86.1344 19.9691 86.6243 21.6052 86.6243 23.7562V31.6709C86.6243 33.8219 86.1344 35.458 85.1545 36.575C84.1746 37.6919 82.717 38.2504 80.7775 38.2504C78.8381 38.2504 77.3764 37.6919 76.4006 36.575C75.4207 35.458 74.9308 33.8219 74.9308 31.6709V28.6298H71.0397V37.8795H68.5901V17.5476H71.0397V26.2694H74.9308V23.7562C74.9308 21.6052 75.4207 19.9691 76.4006 18.8521C77.3804 17.7395 78.8381 17.1767 80.7775 17.1767ZM80.7775 19.3844C79.7005 19.3844 78.8664 19.7291 78.2712 20.4228C77.676 21.1166 77.3804 22.1157 77.3804 23.4203V31.985C77.3804 33.3506 77.6882 34.3716 78.3036 35.0435C78.9191 35.7154 79.7451 36.0514 80.7816 36.0514C81.8181 36.0514 82.6441 35.7154 83.2596 35.0435C83.875 34.3716 84.1827 33.3506 84.1827 31.985V23.4508C84.1827 22.107 83.875 21.0904 83.2596 20.4097C82.6401 19.7247 81.8141 19.3844 80.7775 19.3844Z" fill="#150035"/>
<path d="M100.626 37.8839H98.176V31.2084H93.1067V37.8839H90.657V22.7353H93.1067V29.0356H98.176V22.7353H100.626V37.8839Z" fill="#150035"/>
<path d="M114.453 37.8839H112.149V35.7111C111.631 36.5401 111.056 37.1684 110.42 37.6047C109.789 38.041 109.112 38.2548 108.404 38.2548C107.25 38.2548 106.339 37.8316 105.667 36.9808C104.995 36.1343 104.659 34.8298 104.659 33.0714V22.7353H107.108V32.6089C107.108 33.7477 107.27 34.5636 107.598 35.061C107.926 35.5584 108.355 35.8071 108.894 35.8071C109.412 35.8071 109.951 35.5846 110.505 35.1395C111.064 34.6945 111.562 34.0793 112.003 33.294V22.7353H114.453V37.8839Z" fill="#150035"/>
<path d="M124.624 17.1767C125.276 17.1767 125.944 17.2334 126.628 17.3469C127.309 17.4603 127.969 17.5694 128.6 17.6741L128.543 20.004C128.062 19.8993 127.466 19.7902 126.758 19.6767C126.049 19.5633 125.337 19.5066 124.628 19.5066C123.304 19.5066 122.357 19.7902 121.79 20.3617C121.223 20.9333 120.939 21.8976 120.939 23.2632V32.1421C120.939 33.4859 121.223 34.4458 121.79 35.013C122.357 35.5845 123.304 35.8681 124.628 35.8681C125.337 35.8681 126.049 35.8114 126.758 35.698C127.466 35.5845 128.066 35.4755 128.543 35.3708L128.6 37.7617C127.969 37.8664 127.309 37.9755 126.628 38.089C125.948 38.2024 125.28 38.2591 124.624 38.2591C123.49 38.2591 122.531 38.1282 121.741 37.8708C120.952 37.6134 120.32 37.2207 119.838 36.6928C119.356 36.1648 119.012 35.506 118.802 34.7207C118.591 33.9353 118.486 33.0234 118.486 31.9894V23.4508C118.486 21.3391 118.947 19.7684 119.866 18.7343C120.79 17.6959 122.377 17.1767 124.624 17.1767Z" fill="#150035"/>
<path d="M145.161 37.8838H142.508L141.269 33.1673H134.329L133.09 37.8838H130.584L136.346 17.5518H139.37L145.161 37.8838ZM134.937 30.8069H140.67L137.82 19.9733L134.937 30.8069Z" fill="#150035"/>
<path d="M157.494 19.9428H150.149V26.0904C150.724 26.0075 151.274 25.9464 151.793 25.9028C152.311 25.8635 152.732 25.8417 153.06 25.8417C155.21 25.8417 156.83 26.3391 157.915 27.3338C159 28.3286 159.543 29.7466 159.543 31.5879V32.4256C159.543 33.2938 159.413 34.0879 159.154 34.7991C158.895 35.5103 158.498 36.1255 157.959 36.6316C157.421 37.1377 156.737 37.5391 155.898 37.8271C155.064 38.115 154.068 38.2634 152.918 38.2634C152.056 38.2634 151.145 38.2372 150.197 38.1848C149.246 38.1325 148.416 38.0758 147.707 38.0147V17.5518H157.502V19.9428H157.494ZM152.623 28.0756C152.295 28.0756 151.898 28.1018 151.428 28.1541C150.959 28.2065 150.529 28.2545 150.145 28.2937V35.807C150.797 35.9117 151.315 35.9771 151.7 36.0077C152.084 36.0382 152.449 36.0557 152.793 36.0557C154.291 36.0557 155.38 35.7284 156.064 35.0783C156.745 34.4282 157.089 33.512 157.089 32.3296V31.6446C157.089 30.4665 156.737 29.5765 156.036 28.9744C155.336 28.3766 154.198 28.0756 152.623 28.0756Z" fill="#150035"/>
<g clip-path="url(#clip0_114_20)">
<path d="M11.1721 30.9039L11.8881 29.7321L19.4039 34.0666C22.8108 34.1851 26.1455 33.0749 28.7897 30.9417C31.4338 28.8085 33.2079 25.7972 33.7831 22.466V22.466L25.8139 25.7841L29.6523 16.8884L35.4311 20.324L36.4564 18.644L33.1476 16.6826L30.4319 15.0739L23.2296 10.7899L24.3141 9.02168L31.2538 13.1419L31.58 12.3985C30.3463 10.5952 28.705 9.10229 26.7867 8.03861C24.8685 6.97494 22.7262 6.36987 20.5305 6.27158C18.3348 6.17328 16.1463 6.58448 14.1392 7.47242C12.132 8.36037 10.3616 9.70056 8.96901 11.3863L1.02953 6.65285L-0.00421143 8.33287L19.1878 19.736L18.2388 21.3236L6.97779 14.6035C6.27863 16.1962 5.89461 17.9073 5.8466 19.6436C5.67714 23.957 8.10897 28.2159 11.1424 30.8787L11.1721 30.9039Z" fill="#E12A24"/>
<path d="M44.5865 26.0025L41.7987 19.1312L33.783 22.4661C33.2082 25.802 31.4306 28.8175 28.7809 30.9513C26.1312 33.0852 22.7899 34.1923 19.3784 34.0666L19.12 34.0456L11.8753 29.7321L10.85 31.4122L31.5672 43.7561V43.7351L33.139 44.6675L32.1265 46.3475L21.4925 40.0055L27.5128 54L52.1828 43.7267L44.5865 26.0025Z" fill="#009FD6"/>
<path d="M36.9351 0L31.2622 13.1377L24.3226 9.0175L23.238 10.7857L30.4319 15.0698V15.0782L33.1476 16.6868L36.4564 18.6482L35.4311 20.324L29.6523 16.8884L25.8139 25.7841L41.7988 19.1312L44.5865 26.0025L44.7475 26.3847L56 25.0407L36.9351 0Z" fill="#FCE51B"/>
</g>
<defs>
<clipPath id="clip0_114_20">
<rect width="56" height="54" fill="white"/>
</clipPath>
</defs>
</svg>
