<svg width="159" height="59" viewBox="0 0 159 59" fill="none" xmlns="http://www.w3.org/2000/svg">
<path d="M79.7775 19.1767C81.717 19.1767 83.1787 19.7352 84.1545 20.8521C85.1344 21.9691 85.6243 23.6052 85.6243 25.7562V33.6709C85.6243 35.8219 85.1344 37.458 84.1545 38.575C83.1746 39.6919 81.717 40.2504 79.7775 40.2504C77.8381 40.2504 76.3764 39.6919 75.4006 38.575C74.4207 37.458 73.9308 35.8219 73.9308 33.6709V30.6298H70.0397V39.8795H67.5901V19.5476H70.0397V28.2694H73.9308V25.7562C73.9308 23.6052 74.4207 21.9691 75.4006 20.8521C76.3804 19.7395 77.8381 19.1767 79.7775 19.1767ZM79.7775 21.3844C78.7005 21.3844 77.8664 21.7291 77.2712 22.4228C76.676 23.1166 76.3804 24.1157 76.3804 25.4203V33.985C76.3804 35.3506 76.6882 36.3716 77.3036 37.0435C77.9191 37.7154 78.7451 38.0514 79.7816 38.0514C80.8181 38.0514 81.6441 37.7154 82.2596 37.0435C82.875 36.3716 83.1827 35.3506 83.1827 33.985V25.4508C83.1827 24.107 82.875 23.0904 82.2596 22.4097C81.6401 21.7247 80.8141 21.3844 79.7775 21.3844Z" fill="white"/>
<path d="M99.6257 39.8839H97.176V33.2084H92.1067V39.8839H89.6571V24.7353H92.1067V31.0356H97.176V24.7353H99.6257V39.8839Z" fill="white"/>
<path d="M113.453 39.8839H111.149V37.7111C110.631 38.5401 110.056 39.1683 109.42 39.6046C108.789 40.041 108.112 40.2547 107.404 40.2547C106.25 40.2547 105.339 39.8315 104.667 38.9807C103.995 38.1343 103.658 36.8297 103.658 35.0714V24.7353H106.108V34.6089C106.108 35.7477 106.27 36.5636 106.598 37.061C106.926 37.5584 107.355 37.8071 107.894 37.8071C108.412 37.8071 108.95 37.5845 109.505 37.1395C110.064 36.6945 110.562 36.0793 111.003 35.2939V24.7353H113.453V39.8839Z" fill="white"/>
<path d="M123.624 19.1767C124.276 19.1767 124.944 19.2334 125.628 19.3469C126.309 19.4603 126.969 19.5694 127.6 19.6741L127.543 22.004C127.062 21.8993 126.466 21.7902 125.758 21.6767C125.049 21.5633 124.337 21.5066 123.628 21.5066C122.304 21.5066 121.357 21.7902 120.79 22.3617C120.223 22.9333 119.939 23.8976 119.939 25.2632V34.1421C119.939 35.4859 120.223 36.4458 120.79 37.013C121.357 37.5845 122.304 37.8681 123.628 37.8681C124.337 37.8681 125.049 37.8114 125.758 37.698C126.466 37.5845 127.066 37.4755 127.543 37.3708L127.6 39.7617C126.969 39.8664 126.309 39.9755 125.628 40.089C124.948 40.2024 124.28 40.2591 123.624 40.2591C122.49 40.2591 121.531 40.1282 120.741 39.8708C119.952 39.6134 119.32 39.2207 118.838 38.6928C118.356 38.1648 118.012 37.506 117.802 36.7207C117.591 35.9353 117.486 35.0234 117.486 33.9894V25.4508C117.486 23.3391 117.947 21.7684 118.866 20.7343C119.79 19.6959 121.377 19.1767 123.624 19.1767Z" fill="white"/>
<path d="M144.161 39.8838H141.508L140.269 35.1673H133.329L132.09 39.8838H129.584L135.346 19.5518H138.37L144.161 39.8838ZM133.937 32.8068H139.67L136.82 21.9733L133.937 32.8068Z" fill="white"/>
<path d="M156.494 21.9428H149.149V28.0903C149.724 28.0074 150.274 27.9464 150.793 27.9027C151.311 27.8635 151.732 27.8416 152.06 27.8416C154.21 27.8416 155.83 28.339 156.915 29.3338C158 30.3286 158.543 31.7466 158.543 33.5878V34.4255C158.543 35.2938 158.413 36.0879 158.154 36.7991C157.895 37.5102 157.498 38.1254 156.959 38.6316C156.421 39.1377 155.737 39.5391 154.898 39.827C154.064 40.115 153.068 40.2633 151.918 40.2633C151.056 40.2633 150.145 40.2372 149.197 40.1848C148.246 40.1325 147.416 40.0757 146.707 40.0146V19.5518H156.502V21.9428H156.494ZM151.623 30.0755C151.295 30.0755 150.898 30.1017 150.428 30.1541C149.959 30.2064 149.529 30.2544 149.145 30.2937V37.8069C149.797 37.9116 150.315 37.9771 150.7 38.0076C151.084 38.0382 151.449 38.0556 151.793 38.0556C153.291 38.0556 154.38 37.7284 155.064 37.0783C155.745 36.4282 156.089 35.5119 156.089 34.3296V33.6445C156.089 32.4665 155.737 31.5764 155.036 30.9743C154.336 30.3766 153.198 30.0755 151.623 30.0755Z" fill="white"/>
<path d="M30.6557 14.656L23.8203 10.3295L22.7725 12.2422L29.8638 16.7269V16.7401L32.5321 18.4285L35.7975 20.473L34.8106 22.2801L29.1205 18.6791L25.4896 28.1763L26.7811 27.6091L42.7791 20.2752L45.9349 28.3346L55 27.1342L36.7845 1.57105L36.0656 0.502625L30.6557 14.656Z" fill="white"/>
<path d="M27.6097 29.6668L21.5541 32.6083L27.2685 17.6635L19.9579 13.0468L21.152 10.7912L22.7725 7.82335C21.8587 7.59912 20.9205 7.45402 19.9579 7.42764C15.4619 7.29573 11.4167 9.52493 8.80926 13.0468L0.98693 8.10035L0 9.89426L18.9101 21.858L17.9962 23.5728L6.89632 16.5423C6.26274 18.2043 5.87284 20.0246 5.84847 21.924C5.751 25.736 7.40806 29.4953 9.67435 32.2653L11.368 29.5085L19.6167 34.9298C23.9056 34.9166 27.6828 32.45 29.7175 28.6775L27.6097 29.6668Z" fill="white"/>
<path d="M43.8392 28.229L41.8044 22.9265C39.4041 24.074 35.2614 26.0394 32.5809 27.3057C30.6314 33.1755 25.3677 37.3041 19.2756 37.159C19.1903 37.159 19.105 37.1458 19.0197 37.1458L11.8797 32.6215L10.8928 34.4286L32.8733 48.3181L31.8985 50.1252L21.3957 43.4904L27.5122 58.3165L28.2676 57.9736L51.4666 47.0123L43.8392 28.229Z" fill="white"/>
</svg>
